<svg width="20" height="20" viewBox="0 0 20 20" fill="none" xmlns="http://www.w3.org/2000/svg">
<path d="M10.0001 19.3079L6.44238 15.7501L7.15588 15.0366L9.50013 17.3809V12.5001H10.5001V17.3751L12.8386 15.0309L13.5579 15.7501L10.0001 19.3079ZM4.25013 13.5579L0.692383 10.0001L4.24438 6.44813L4.95788 7.16163L2.61938 9.50013H7.50013V10.5001H2.62513L4.96938 12.8386L4.25013 13.5579ZM15.7501 13.5579L15.0366 12.8444L17.3809 10.5001H12.5001V9.50013H17.3751L15.0309 7.16163L15.7501 6.44238L19.3079 10.0001L15.7501 13.5579ZM9.50013 7.50013V2.61938L7.15588 4.96363L6.44238 4.25013L10.0001 0.692383L13.5579 4.25013L12.8444 4.96363L10.5001 2.61938V7.50013H9.50013Z" fill="#5F6368"/>
</svg>
