<svg width="31" height="31" viewBox="0 0 31 31" fill="none" xmlns="http://www.w3.org/2000/svg">
<path d="M6.45898 24.2436V22.952H8.54567V12.7181C8.54567 11.0305 9.07967 9.54628 10.1477 8.26538C11.2159 6.98447 12.5696 6.18676 14.209 5.87224V5.16667C14.209 4.8078 14.3343 4.50286 14.5849 4.25184C14.8354 4.00061 15.1397 3.875 15.4977 3.875C15.8558 3.875 16.161 4.00061 16.4135 4.25184C16.6661 4.50286 16.7923 4.8078 16.7923 5.16667V5.87224C18.4317 6.18676 19.7854 6.98447 20.8536 8.26538C21.9216 9.54628 22.4556 11.0305 22.4556 12.7181V22.952H24.5423V24.2436H6.45898ZM15.4961 27.6216C14.9211 27.6216 14.4304 27.4174 14.024 27.0088C13.6173 26.6002 13.414 26.109 13.414 25.5353H17.5873C17.5873 26.1133 17.3825 26.6055 16.9728 27.012C16.5634 27.4184 16.0711 27.6216 15.4961 27.6216ZM9.83734 22.952H21.164V12.7181C21.164 11.1481 20.6125 9.81161 19.5097 8.70874C18.4068 7.60587 17.0705 7.05444 15.5007 7.05444C13.9308 7.05444 12.5945 7.60587 11.4916 8.70874C10.3888 9.81161 9.83734 11.1481 9.83734 12.7181V22.952Z" fill="#5F6368"/>
</svg>
