<svg width="29" height="29" viewBox="0 0 29 29" fill="none" xmlns="http://www.w3.org/2000/svg">
<circle cx="14.2544" cy="14.2544" r="14.2544" fill="#FF0000" fill-opacity="0.1"/>
<path d="M9.61184 22.8074C9.13798 22.8074 8.73436 22.6368 8.40099 22.2955C8.06779 21.954 7.90118 21.5405 7.90118 21.0551V7.6213H6.84229V6.53657H11.0779V5.70215H17.4313V6.53657H21.6669V7.6213H20.608V21.0551C20.608 21.5544 20.4447 21.9713 20.1182 22.3058C19.7917 22.6402 19.3848 22.8074 18.8973 22.8074H9.61184ZM19.5491 7.6213H8.96008V21.0551C8.96008 21.2498 9.02115 21.4098 9.14327 21.5351C9.26558 21.6602 9.42176 21.7227 9.61184 21.7227H18.8973C19.0604 21.7227 19.2098 21.6532 19.3455 21.5142C19.4812 21.3752 19.5491 21.2221 19.5491 21.0551V7.6213ZM11.9332 19.5533H12.9921V9.79075H11.9332V19.5533ZM15.5171 19.5533H16.576V9.79075H15.5171V19.5533Z" fill="#FF2323"/>
</svg>
