<svg width="29" height="29" viewBox="0 0 29 29" fill="none" xmlns="http://www.w3.org/2000/svg">
<circle cx="14.2544" cy="14.2544" r="14.2544" fill="#3793E9" fill-opacity="0.1"/>
<path d="M7.69755 19.6713H8.63663L17.7865 10.5216L16.8472 9.58234L7.69755 18.7322V19.6713ZM6.84229 20.5265V18.3719L18.1153 7.08732C18.203 7.0092 18.2997 6.94884 18.4055 6.90622C18.5114 6.8636 18.6218 6.84229 18.7367 6.84229C18.8516 6.84229 18.9629 6.86039 19.0707 6.89659C19.1783 6.9328 19.2776 6.99801 19.3687 7.09224L20.2815 8.01015C20.3757 8.10109 20.4401 8.20087 20.4748 8.30949C20.5093 8.41825 20.5265 8.52694 20.5265 8.63556C20.5265 8.75145 20.507 8.86235 20.4679 8.96826C20.4289 9.07403 20.3667 9.17074 20.2815 9.25841L8.99691 20.5265H6.84229ZM17.3086 10.0602L16.8472 9.58234L17.7865 10.5216L17.3086 10.0602Z" fill="#3793E9"/>
</svg>
