<svg width="21" height="21" viewBox="0 0 21 21" fill="none" xmlns="http://www.w3.org/2000/svg">
<path d="M10.502 13.6299C11.4935 13.6299 12.3356 13.2829 13.0283 12.5888C13.721 11.8948 14.0674 11.0521 14.0674 10.0605C14.0674 9.06901 13.7204 8.2269 13.0263 7.53419C12.3323 6.84148 11.4896 6.49512 10.498 6.49512C9.50651 6.49512 8.6644 6.84214 7.97169 7.53616C7.27898 8.23018 6.93263 9.07295 6.93263 10.0645C6.93263 11.056 7.27964 11.8981 7.97366 12.5908C8.66768 13.2835 9.51045 13.6299 10.502 13.6299ZM10.5 12.425C9.84375 12.425 9.28594 12.1953 8.82657 11.7359C8.36719 11.2766 8.1375 10.7188 8.1375 10.0625C8.1375 9.40625 8.36719 8.84844 8.82657 8.38906C9.28594 7.92969 9.84375 7.7 10.5 7.7C11.1563 7.7 11.7141 7.92969 12.1734 8.38906C12.6328 8.84844 12.8625 9.40625 12.8625 10.0625C12.8625 10.7188 12.6328 11.2766 12.1734 11.7359C11.7141 12.1953 11.1563 12.425 10.5 12.425ZM10.5011 16.1875C8.48904 16.1875 6.65569 15.6325 5.00107 14.5224C3.34644 13.4124 2.12815 11.9258 1.34619 10.0625C2.12815 8.19919 3.346 6.71256 4.99975 5.60262C6.65365 4.49254 8.4867 3.9375 10.4989 3.9375C12.511 3.9375 14.3443 4.49254 15.9989 5.60262C17.6536 6.71256 18.8719 8.19919 19.6538 10.0625C18.8719 11.9258 17.654 13.4124 16.0003 14.5224C14.3464 15.6325 12.5133 16.1875 10.5011 16.1875ZM10.5 14.875C12.1479 14.875 13.6609 14.4411 15.0391 13.5734C16.4172 12.7057 17.4708 11.5354 18.2 10.0625C17.4708 8.58958 16.4172 7.41927 15.0391 6.55156C13.6609 5.68385 12.1479 5.25 10.5 5.25C8.85209 5.25 7.33907 5.68385 5.96094 6.55156C4.58282 7.41927 3.52917 8.58958 2.8 10.0625C3.52917 11.5354 4.58282 12.7057 5.96094 13.5734C7.33907 14.4411 8.85209 14.875 10.5 14.875Z" fill="#016E69"/>
</svg>
