<svg width="18" height="18" viewBox="0 0 18 18" fill="none" xmlns="http://www.w3.org/2000/svg">
<path d="M7.1345 18L6.773 15.1077C6.45384 15.0116 6.10867 14.8603 5.7375 14.6538C5.36633 14.4474 5.05067 14.2263 4.7905 13.9905L2.123 15.125L0.257751 11.875L2.5635 10.1365C2.534 9.95583 2.50967 9.76967 2.4905 9.578C2.47117 9.38633 2.4615 9.20008 2.4615 9.01925C2.4615 8.85125 2.47117 8.67467 2.4905 8.4895C2.50967 8.30417 2.534 8.0955 2.5635 7.8635L0.257751 6.125L2.123 2.9135L4.77125 4.02875C5.06992 3.78008 5.393 3.55575 5.7405 3.35575C6.08783 3.15575 6.42558 3.00125 6.75375 2.89225L7.1345 0H10.8655L11.227 2.9115C11.6103 3.04617 11.9491 3.20067 12.2433 3.375C12.5374 3.54933 12.8403 3.76725 13.152 4.02875L15.877 2.9135L17.7423 6.125L15.3595 7.92125C15.4147 8.12758 15.4455 8.317 15.452 8.4895C15.4583 8.66183 15.4615 8.832 15.4615 9C15.4615 9.15517 15.4551 9.31892 15.4423 9.49125C15.4294 9.66375 15.3999 9.87242 15.3538 10.1173L17.698 11.875L15.8328 15.125L13.152 13.9712C12.8403 14.2327 12.5268 14.4571 12.2115 14.6443C11.8962 14.8314 11.568 14.9795 11.227 15.0885L10.8655 18H7.1345ZM8 17H9.95575L10.325 14.2923C10.8288 14.1589 11.2823 13.9759 11.6855 13.7432C12.0888 13.5106 12.4994 13.1917 12.9173 12.7865L15.4115 13.85L16.4058 12.15L14.2173 10.5058C14.3006 10.2211 14.3558 9.95925 14.3828 9.72025C14.4096 9.48108 14.423 9.241 14.423 9C14.423 8.74617 14.4096 8.50608 14.3828 8.27975C14.3558 8.05358 14.3006 7.80458 14.2173 7.53275L16.4443 5.85L15.45 4.15L12.898 5.21925C12.5955 4.88725 12.1978 4.576 11.7048 4.2855C11.2119 3.99517 10.7456 3.80258 10.3058 3.70775L10 1H8.00575L7.69425 3.6885C7.19042 3.79617 6.72725 3.96958 6.30475 4.20875C5.88242 4.44775 5.46225 4.77625 5.04425 5.19425L2.55 4.15L1.55575 5.85L3.725 7.46925C3.64167 7.69358 3.58333 7.93717 3.55 8.2C3.51667 8.46283 3.5 8.73592 3.5 9.01925C3.5 9.27308 3.51667 9.525 3.55 9.775C3.58333 10.025 3.63525 10.2686 3.70575 10.5058L1.55575 12.15L2.55 13.85L5.025 12.8C5.41734 13.1962 5.82467 13.5138 6.247 13.753C6.6695 13.992 7.1455 14.1782 7.675 14.3115L8 17ZM8.973 11.5C9.6705 11.5 10.2616 11.2577 10.7463 10.773C11.2308 10.2885 11.473 9.6975 11.473 9C11.473 8.3025 11.2308 7.7115 10.7463 7.227C10.2616 6.74233 9.6705 6.5 8.973 6.5C8.27184 6.5 7.67984 6.74233 7.197 7.227C6.71433 7.7115 6.473 8.3025 6.473 9C6.473 9.6975 6.71433 10.2885 7.197 10.773C7.67984 11.2577 8.27184 11.5 8.973 11.5Z" fill="white"/>
</svg>
