<svg width="24" height="24" viewBox="0 0 24 24" fill="none" xmlns="http://www.w3.org/2000/svg">
<path d="M1 17.577V16.7135C1 16.0993 1.32817 15.5897 1.9845 15.1845C2.641 14.7795 3.48592 14.577 4.51925 14.577C4.67175 14.577 4.83517 14.5843 5.0095 14.599C5.184 14.6138 5.36933 14.6379 5.5655 14.6712C5.409 14.9442 5.29483 15.2243 5.223 15.5115C5.15133 15.7987 5.1155 16.0865 5.1155 16.375V17.577H1ZM7 17.577V16.452C7 16.049 7.117 15.6806 7.351 15.3467C7.585 15.0131 7.93017 14.7244 8.3865 14.4807C8.843 14.2372 9.37475 14.0546 9.98175 13.9327C10.5887 13.8109 11.2589 13.75 11.9923 13.75C12.7397 13.75 13.417 13.8109 14.024 13.9327C14.631 14.0546 15.1628 14.2372 15.6193 14.4807C16.0756 14.7244 16.4198 15.0131 16.652 15.3467C16.884 15.6806 17 16.049 17 16.452V17.577H7ZM18.8845 17.577V16.3807C18.8845 16.0617 18.8496 15.7612 18.7798 15.479C18.7099 15.1968 18.6052 14.9276 18.4655 14.6712C18.6743 14.6379 18.8618 14.6138 19.028 14.599C19.194 14.5843 19.3513 14.577 19.5 14.577C20.5333 14.577 21.375 14.7786 22.025 15.1817C22.675 15.5849 23 16.0955 23 16.7135V17.577H18.8845ZM8.02875 16.577H15.977V16.3655C15.9385 15.891 15.5497 15.5032 14.8105 15.202C14.0715 14.9007 13.1347 14.75 12 14.75C10.8653 14.75 9.9285 14.9007 9.1895 15.202C8.45033 15.5032 8.06342 15.891 8.02875 16.3655V16.577ZM4.514 13.6345C4.12133 13.6345 3.78683 13.4952 3.5105 13.2165C3.23433 12.9378 3.09625 12.6028 3.09625 12.2115C3.09625 11.8243 3.23558 11.4936 3.51425 11.2192C3.79292 10.9449 4.12792 10.8077 4.51925 10.8077C4.90642 10.8077 5.24042 10.9449 5.52125 11.2192C5.80192 11.4936 5.94225 11.8262 5.94225 12.2172C5.94225 12.5967 5.80542 12.9278 5.53175 13.2105C5.25792 13.4932 4.91867 13.6345 4.514 13.6345ZM19.5 13.6345C19.1167 13.6345 18.7837 13.4932 18.501 13.2105C18.2183 12.9278 18.077 12.5967 18.077 12.2172C18.077 11.8262 18.2183 11.4936 18.501 11.2192C18.7837 10.9449 19.1179 10.8077 19.5038 10.8077C19.9013 10.8077 20.2372 10.9449 20.5115 11.2192C20.7858 11.4936 20.923 11.8243 20.923 12.2115C20.923 12.6028 20.7867 12.9378 20.514 13.2165C20.2412 13.4952 19.9032 13.6345 19.5 13.6345ZM12.0068 13C11.3997 13 10.8815 12.7868 10.452 12.3605C10.0225 11.9343 9.80775 11.4167 9.80775 10.8077C9.80775 10.1866 10.0208 9.6659 10.447 9.24574C10.8733 8.8254 11.391 8.61523 12 8.61523C12.6212 8.61523 13.1418 8.82473 13.562 9.24373C13.9822 9.66257 14.1923 10.1817 14.1923 10.801C14.1923 11.408 13.9828 11.9262 13.564 12.3557C13.1452 12.7852 12.6261 13 12.0068 13ZM12.0095 12C12.3378 12 12.617 11.8817 12.847 11.6452C13.0772 11.4086 13.1923 11.1262 13.1923 10.798C13.1923 10.4698 13.078 10.1907 12.8495 9.96048C12.621 9.73032 12.3378 9.61523 12 9.61523C11.6782 9.61523 11.399 9.72957 11.1625 9.95824C10.926 10.1867 10.8077 10.4699 10.8077 10.8077C10.8077 11.1294 10.926 11.4086 11.1625 11.6452C11.399 11.8817 11.6813 12 12.0095 12Z" fill="#5F6368"/>
</svg>
