<svg width="15" height="17" viewBox="0 0 15 17" fill="none" xmlns="http://www.w3.org/2000/svg">
<path d="M6.78064 16.2588C5.04597 16.0216 3.61231 15.2482 2.47964 13.9385C1.34697 12.629 0.78064 11.0986 0.78064 9.3473C0.78064 8.41397 0.965223 7.52005 1.33439 6.66555C1.70372 5.81105 2.21147 5.05372 2.85764 4.39355L3.57114 5.1068C2.97614 5.6608 2.52897 6.30313 2.22964 7.0338C1.93031 7.76463 1.78064 8.5358 1.78064 9.3473C1.78064 10.814 2.25047 12.1034 3.19014 13.2156C4.12997 14.3277 5.32681 15.0088 6.78064 15.2588V16.2588ZM8.78064 16.2973V15.2973C10.2178 14.9793 11.4105 14.2716 12.3586 13.1743C13.3066 12.0768 13.7806 10.8011 13.7806 9.3473C13.7806 7.68063 13.1973 6.26397 12.0306 5.0973C10.864 3.93063 9.44731 3.3473 7.78064 3.3473H7.14789L8.74789 4.9473L8.04014 5.65505L5.23264 2.8473L8.04014 0.0395508L8.74789 0.747301L7.14789 2.3473H7.78064C9.73197 2.3473 11.3865 3.02613 12.7441 4.3838C14.1018 5.74147 14.7806 7.39597 14.7806 9.3473C14.7806 11.0948 14.2111 12.6169 13.0719 13.9135C11.9329 15.2104 10.5025 16.005 8.78064 16.2973Z" fill="white"/>
</svg>
